<svg xmlns="http://www.w3.org/2000/svg" viewBox="0 0 16 16" shape-rendering="crispEdges">
  <!-- Pixel art sparkle ✦ favicon -->
  <!-- P: #8855aa (purple border) -->
  <rect x="7" y="0" width="2" height="1" fill="#8855aa"/>
  <rect x="6" y="1" width="1" height="3" fill="#8855aa"/>
  <rect x="9" y="1" width="1" height="3" fill="#8855aa"/>
  <rect x="5" y="4" width="1" height="1" fill="#8855aa"/>
  <rect x="10" y="4" width="1" height="1" fill="#8855aa"/>
  <rect x="4" y="5" width="1" height="1" fill="#8855aa"/>
  <rect x="11" y="5" width="1" height="1" fill="#8855aa"/>
  <rect x="2" y="6" width="2" height="1" fill="#8855aa"/>
  <rect x="12" y="6" width="2" height="1" fill="#8855aa"/>
  <rect x="0" y="7" width="2" height="2" fill="#8855aa"/>
  <rect x="14" y="7" width="2" height="2" fill="#8855aa"/>
  <rect x="2" y="9" width="2" height="1" fill="#8855aa"/>
  <rect x="12" y="9" width="2" height="1" fill="#8855aa"/>
  <rect x="4" y="10" width="1" height="1" fill="#8855aa"/>
  <rect x="11" y="10" width="1" height="1" fill="#8855aa"/>
  <rect x="5" y="11" width="1" height="1" fill="#8855aa"/>
  <rect x="10" y="11" width="1" height="1" fill="#8855aa"/>
  <rect x="6" y="12" width="1" height="3" fill="#8855aa"/>
  <rect x="9" y="12" width="1" height="3" fill="#8855aa"/>
  <rect x="7" y="15" width="2" height="1" fill="#8855aa"/>
  <!-- L: #ddbbff (lavender middle) -->
  <rect x="7" y="2" width="2" height="2" fill="#ddbbff"/>
  <rect x="6" y="4" width="4" height="1" fill="#ddbbff"/>
  <rect x="5" y="5" width="2" height="1" fill="#ddbbff"/>
  <rect x="9" y="5" width="2" height="1" fill="#ddbbff"/>
  <rect x="4" y="6" width="2" height="1" fill="#ddbbff"/>
  <rect x="10" y="6" width="2" height="1" fill="#ddbbff"/>
  <rect x="2" y="7" width="2" height="2" fill="#ddbbff"/>
  <rect x="12" y="7" width="2" height="2" fill="#ddbbff"/>
  <rect x="4" y="9" width="2" height="1" fill="#ddbbff"/>
  <rect x="10" y="9" width="2" height="1" fill="#ddbbff"/>
  <rect x="5" y="10" width="2" height="1" fill="#ddbbff"/>
  <rect x="9" y="10" width="2" height="1" fill="#ddbbff"/>
  <rect x="6" y="11" width="4" height="1" fill="#ddbbff"/>
  <rect x="7" y="12" width="2" height="2" fill="#ddbbff"/>
  <!-- K: #ffaacc (pink highlights) -->
  <rect x="7" y="1" width="2" height="1" fill="#ffaacc"/>
  <rect x="7" y="5" width="2" height="1" fill="#ffaacc"/>
  <rect x="6" y="6" width="4" height="1" fill="#ffaacc"/>
  <rect x="4" y="7" width="8" height="2" fill="#ffaacc"/>
  <rect x="6" y="9" width="4" height="1" fill="#ffaacc"/>
  <rect x="7" y="10" width="2" height="1" fill="#ffaacc"/>
  <rect x="7" y="14" width="2" height="1" fill="#ffaacc"/>
  <!-- White center sparkle -->
  <rect x="7" y="7" width="2" height="2" fill="#fff"/>
</svg>
